<?xml version="1.0" encoding="UTF-8"?>
<svg width="22px" height="22px" viewBox="0 0 22 22" version="1.1" xmlns="http://www.w3.org/2000/svg" xmlns:xlink="http://www.w3.org/1999/xlink">
    <!-- Generator: Sketch 52.5 (67469) - http://www.bohemiancoding.com/sketch -->
    <title>ic_download</title>
    <desc>Created with Sketch.</desc>
    <g id="Symbols" stroke="none" stroke-width="1" fill="none" fill-rule="evenodd">
        <g id="ic_download">
            <g>
                <rect id="矩形" fill="#000000" opacity="0" x="0" y="0" width="22" height="22"></rect>
                <g id="分组-2" transform="translate(1.100000, 1.100000)" fill="#7B3DCB" fill-rule="nonzero">
                    <path d="M16.9433576,0.828796547 L2.88510871,0.828796547 C1.78043799,0.828796547 0.875690707,1.73185537 0.875690707,2.83800351 L0.875690707,16.894986 C0.875690707,17.9994193 1.78043799,18.904193 2.88510871,18.904193 L16.9433576,18.904193 C18.0465509,18.904193 18.9512718,17.9994457 18.9512718,16.894986 L18.9512718,2.83800351 C18.9512718,1.73185537 18.0465509,0.828796547 16.9433576,0.828796547 Z M16.9433576,12.8791312 L12.9260253,12.8791312 C12.9260253,14.5854718 11.6214311,15.8917544 9.91361314,15.8917544 C8.20727255,15.8917544 6.90098991,14.5854718 6.90098991,12.8791312 L2.88513506,12.8791312 L2.88513506,2.83800351 L16.943384,2.83800351 L16.943384,12.8791312 L16.9433576,12.8791312 Z" id="形状"></path>
                    <path d="M8.27963978,6.33524117 L11.484751,6.33524117 L11.484751,7.18898791 L8.27963978,7.18898791 L8.27963978,6.33524117 Z M8.27963978,5.5 L11.484751,5.5 L11.484751,5.94534532 L8.27963978,5.94534532 L8.27963978,5.5 Z M14.3,8.84099828 L11.484751,8.84099828 L11.484751,7.61619775 L8.27963978,7.61619775 L8.27963978,8.85059876 L5.5,8.85059876 L9.87276875,13.6396534 L14.3,8.84099828 Z" id="形状"></path>
                </g>
            </g>
        </g>
    </g>
</svg>