<?xml version="1.0" encoding="UTF-8"?>
<svg width="20px" height="20px" viewBox="0 0 20 20" version="1.1" xmlns="http://www.w3.org/2000/svg" xmlns:xlink="http://www.w3.org/1999/xlink">
    <!-- Generator: Sketch 52.5 (67469) - http://www.bohemiancoding.com/sketch -->
    <title>ic_webo</title>
    <desc>Created with Sketch.</desc>
    <defs>
        <linearGradient x1="0%" y1="50%" x2="101.734617%" y2="59.7295168%" id="linearGradient-1">
            <stop stop-color="#8A54BE" offset="0%"></stop>
            <stop stop-color="#C560EF" offset="100%"></stop>
        </linearGradient>
    </defs>
    <g id="Symbols" stroke="none" stroke-width="1" fill="none" fill-rule="evenodd">
        <g id="ic_webo">
            <g>
                <rect id="矩形" fill="#000000" opacity="0" x="0" y="0" width="20" height="20"></rect>
                <path d="M9.99798,0 C4.47626,0 0,4.47626 0,9.99804 C0,15.5197 4.47626,19.99596 9.99798,19.99596 C15.5197,19.99596 19.9959,15.5197 19.9959,9.99804 C19.9959,4.47626 15.5197,0 9.99798,0 Z M9.07096,14.98128 C6.51566,14.98128 3.9037,13.74292 3.9037,11.70608 C3.9037,10.64122 4.57834,9.40982 5.7402,8.24772 C7.29158,6.69676 9.10074,5.99026 9.78114,6.67108 C10.08136,6.97086 10.11042,7.49036 9.91746,8.1104 C9.81688,8.42276 10.21062,8.2498 10.21062,8.25048 C11.46458,7.72548 12.55858,7.69454 12.95842,8.26588 C13.1718,8.57034 13.15138,8.99726 12.95472,9.49202 C12.86376,9.71994 12.9827,9.75526 13.15616,9.80734 C13.86272,10.02638 14.6491,10.55618 14.6491,11.48978 C14.64908,13.035 12.4208,14.98128 9.07096,14.98128 Z M13.697,8.50486 C13.77964,8.24954 13.72786,7.95852 13.5352,7.74496 C13.34272,7.53182 13.05826,7.45094 12.79592,7.5064 L12.79592,7.50594 C12.5771,7.55356 12.3614,7.4131 12.31448,7.19448 C12.26744,6.97494 12.40724,6.75906 12.62658,6.71232 C13.16324,6.59822 13.74464,6.76412 14.13834,7.20092 C14.53288,7.63766 14.63838,8.2326 14.46974,8.7545 C14.4009,8.96818 14.172,9.0845 13.95862,9.0162 C13.7453,8.94714 13.62864,8.71796 13.6974,8.50486 L13.697,8.50486 Z M16.06274,9.26884 C16.0626,9.26926 16.0626,9.2702 16.0626,9.27066 C15.98232,9.5182 15.7163,9.65376 15.46886,9.57364 C15.22044,9.49344 15.0847,9.228 15.16488,8.97986 L15.16474,8.9797 C15.41082,8.21796 15.25476,7.349 14.68022,6.71194 C14.10516,6.07482 13.25724,5.83146 12.47372,5.99784 C12.21886,6.05218 11.96824,5.8895 11.9139,5.6349 C11.85934,5.38052 12.0218,5.1298 12.27666,5.07526 L12.27712,5.07526 C13.37846,4.8411 14.57168,5.183 15.38066,6.0799 C16.18986,6.97586 16.40798,8.19734 16.06274,9.26884 Z M12.51048,11.29516 C12.3783,9.95698 10.6181,9.03528 8.57886,9.2369 C6.54006,9.43852 4.99394,10.68688 5.12638,12.02532 C5.25884,13.3641 7.01896,14.2858 9.05798,14.08458 C11.09726,13.88284 12.64272,12.63436 12.51048,11.29516 Z M10.36788,12.39394 C9.95176,13.33516 8.75486,13.83696 7.73946,13.50948 C6.75912,13.19308 6.3441,12.22516 6.77332,11.3532 C7.19476,10.49828 8.29144,10.01472 9.26172,10.26714 C10.26588,10.52668 10.7783,11.47394 10.36788,12.39394 Z M8.29306,11.67692 C7.97734,11.54456 7.5692,11.68066 7.37436,11.98618 C7.17712,12.29302 7.26966,12.65844 7.58318,12.8012 C7.90126,12.94644 8.32358,12.80856 8.52084,12.4939 C8.7145,12.17614 8.61252,11.81308 8.29306,11.67692 Z M9.07126,11.3543 C8.9501,11.30622 8.79862,11.36442 8.72758,11.4836 C8.65856,11.60338 8.69664,11.7398 8.81806,11.78976 C8.94158,11.8406 9.09922,11.7819 9.17054,11.66004 C9.2386,11.53724 9.19436,11.39932 9.07126,11.3543 Z" id="形状" fill="url(#linearGradient-1)" fill-rule="nonzero"></path>
            </g>
        </g>
    </g>
</svg>